<?xml version="1.0" encoding="UTF-8"?><svg xmlns="http://www.w3.org/2000/svg" viewBox="0 0 399.34 91.48"><defs><style>.c{fill:#e4003a;}.d{fill:#01438f;}</style></defs><g id="a"><g><g><path class="d" d="M187.16,10.36h21.25V81.78h-21.25V10.36Z"/><path class="d" d="M320.29,71.12h-26.69l-3.56,10.65h-22.29l28.26-71.42h21.77l28.36,71.42h-22.19l-3.66-10.65Zm-4.81-14.01l-8.58-25.15-8.48,25.15h17.06Z"/><path class="d" d="M350.75,10.36h21.25v53.86h27.34v17.56h-48.58V10.36Z"/><path class="d" d="M249.74,10.37h-33.59V81.78h21.25v-19.79h12.34c16.22,0,27.62-11.32,27.62-25.81s-11.41-25.81-27.62-25.81Zm-1.15,34.99h-11.19V27h11.19c5.44,0,9.42,3.88,9.42,9.18s-3.98,9.18-9.42,9.18Z"/><polygon class="d" points="182.59 10.36 159.46 10.36 143.34 58.2 127.33 10.36 104.38 10.36 132.33 81.78 154.33 81.78 182.59 10.36"/></g><g><g><path class="d" d="M23.47,44.26C31.96,30.74,45.37,15.02,65.59,4.44c-.5-.21-1-.43-1.52-.63-20.78-7.95-43.84,.74-54.51,19.51,3.55,11.49,9.61,17.52,13.9,20.93Z"/><path class="d" d="M41.41,89.27c20.26,3.15,40.67-8.12,48.3-28.05,3.73-9.74,3.79-19.98,.88-29.21-32.11,11.42-45.68,46.45-49.17,57.26Z"/></g><path class="c" d="M37.42,91.48c-2.49-.84-25.76-9.98-37.42-37.25l3.25-1.39c10.45,19.87,29.33,28.35,29.53,28.42l.21,.08,.07-.22c.16-.5,16.55-50.01,60.14-60.77l2.63,6.74c-43.09,10.52-57.4,60.61-58.42,64.37Z"/><path class="d" d="M30.99,76.15C22.36,71.38,7.33,60.06,.59,38.72l3.36-1.04c9.52,20.78,23.66,27.52,23.81,27.58l.17,.08,.09-.17s.96-1.7,2.3-4.38c4.68-9.39,22.75-40.76,58.87-50.68l2.66,6.81c-30.82,8.55-47.6,32.76-54.86,46.46-3.46,6.37-5.3,10.9-6,12.76Z"/><path class="c" d="M85.23,0C53.34,9.36,34.6,31.65,24.49,48.72l-.12,.2-.19-.14c-4.17-3.02-13.91-10.06-18.35-26.89l-3.4,.61c5.15,25.13,21.99,36.52,24.02,37.81,1.56-3.31,20.84-42.68,61.4-53.64l-2.61-6.69Z"/></g></g></g><g id="b"/></svg>